<?xml version="1.0" encoding="UTF-8"?><svg id="Capa_1" xmlns="http://www.w3.org/2000/svg" viewBox="0 0 76.5 113"><defs><style>.cls-1{fill:#d9855f;}</style></defs><path class="cls-1" d="m37.73,69.07c-2.1,0-4.19-.02-6.29-.06-2.1-.04-4.19-.1-6.29-.18-1.21,6.04-2.72,11.81-4.53,17.29-1.81,5.48-4.25,10.52-7.31,15.11-.48.56-1.05.6-1.69.12-1.13-.73-1.49-1.69-1.09-2.9.08-.16.16-.32.24-.48.08-.16.28-.4.6-.73,3.22-4.43,5.76-9.43,7.62-14.99,1.85-5.56,3.34-11.46,4.47-17.71,1.13-6.24,2.09-12.73,2.9-19.46.8-6.73,1.77-13.56,2.9-20.49.24-1.05.68-1.61,1.33-1.69.4,0,.91.08,1.51.24.6.16,1.23.44,1.87.85.64.32,1.29.63,1.93.91.64.28,1.25.46,1.81.54.89,0,1.61-.32,2.18-.97.32-.48.64-.64.97-.48.56.08.97.89,1.21,2.42.8,6.85,1.55,13.62,2.24,20.31.68,6.69,1.57,13.1,2.66,19.22,1.09,6.13,2.54,11.93,4.35,17.41,1.81,5.48,4.33,10.44,7.56,14.87.08.08.12.16.12.24,0,.32-.18.75-.54,1.27-.36.53-.85,1.07-1.45,1.63-.6.56-1.29,1.13-2.06,1.69-.77.56-1.51,1.01-2.24,1.33-1.61.81-3,1.21-4.17,1.21s-1.92-.4-2.24-1.21c-2.1-5.56-3.79-11.28-5.08-17.17-1.29-5.88-2.46-11.93-3.51-18.13Zm-6.65-37.11c-.97,5.72-1.83,11.36-2.6,16.92-.77,5.56-1.63,11-2.6,16.32h11.24c-.89-5.56-1.79-11.12-2.72-16.68-.93-5.56-2.04-11.08-3.32-16.56Z"/></svg>