<?xml version="1.0" encoding="UTF-8"?><svg id="Capa_1" xmlns="http://www.w3.org/2000/svg" viewBox="0 0 159 183"><defs><style>.cls-1{fill:none;stroke:#726c47;stroke-miterlimit:10;stroke-width:1.42px;}.cls-2{fill:#d9855f;}.cls-3{fill:#726c47;}</style></defs><path class="cls-2" d="m81.73,91.07c-2.1,0-4.19-.02-6.29-.06-2.1-.04-4.19-.1-6.29-.18-1.21,6.04-2.72,11.81-4.53,17.29-1.81,5.48-4.25,10.52-7.31,15.11-.48.56-1.05.6-1.69.12-1.13-.73-1.49-1.69-1.09-2.9.08-.16.16-.32.24-.48.08-.16.28-.4.6-.73,3.22-4.43,5.76-9.43,7.62-14.99,1.85-5.56,3.34-11.46,4.47-17.71,1.13-6.24,2.09-12.73,2.9-19.46.8-6.73,1.77-13.56,2.9-20.49.24-1.05.68-1.61,1.33-1.69.4,0,.91.08,1.51.24.6.16,1.23.44,1.87.85.64.32,1.29.63,1.93.91.64.28,1.25.46,1.81.54.89,0,1.61-.32,2.18-.97.32-.48.64-.64.97-.48.56.08.97.89,1.21,2.42.8,6.85,1.55,13.62,2.24,20.31.68,6.69,1.57,13.1,2.66,19.22,1.09,6.13,2.54,11.93,4.35,17.41,1.81,5.48,4.33,10.44,7.56,14.87.08.08.12.16.12.24,0,.32-.18.75-.54,1.27-.36.53-.85,1.07-1.45,1.63-.6.56-1.29,1.13-2.06,1.69-.77.56-1.51,1.01-2.24,1.33-1.61.81-3,1.21-4.17,1.21s-1.92-.4-2.24-1.21c-2.1-5.56-3.79-11.28-5.08-17.17-1.29-5.88-2.46-11.93-3.51-18.13Zm-6.65-37.11c-.97,5.72-1.83,11.36-2.6,16.92-.77,5.56-1.63,11-2.6,16.32h11.24c-.89-5.56-1.79-11.12-2.72-16.68-.93-5.56-2.04-11.08-3.32-16.56Z"/><path class="cls-3" d="m34.26,136.1l-4.19-5.49c-.85.68-1.34,1.42-1.47,2.23-.13.81.1,1.6.7,2.38.67.88,1.57,1.46,2.71,1.75l-1.17.89c-1.02-.31-1.96-1.02-2.81-2.14-.84-1.1-1.14-2.23-.92-3.4.23-1.17.98-2.24,2.26-3.22,1.21-.92,2.46-1.33,3.74-1.23,1.29.1,2.32.67,3.09,1.68.78,1.02,1.05,2.06.81,3.11-.23,1.06-.93,2.03-2.1,2.93l-.65.5Zm.08-2.08c.72-.55,1.14-1.15,1.28-1.8.14-.65-.02-1.27-.49-1.88-.45-.59-1.04-.93-1.77-1.02-.73-.09-1.48.08-2.23.5l3.2,4.2Z"/><path class="cls-3" d="m44.46,150.67l-1.26-.93.98-1.34-.03-.02c-1.33.59-2.61.43-3.83-.47-.99-.73-1.52-1.66-1.6-2.8-.07-1.14.34-2.32,1.23-3.54.96-1.3,2.05-2.11,3.29-2.41,1.23-.3,2.4-.05,3.49.75,1.08.8,1.56,1.8,1.42,3.01l.03.02,3.59-4.88,1.26.93-8.58,11.67Zm1.36-4.49l.85-1.16c.47-.64.65-1.33.56-2.08s-.47-1.36-1.11-1.84c-.77-.57-1.58-.73-2.44-.49-.86.24-1.65.86-2.38,1.85-.67.91-.98,1.78-.95,2.62s.41,1.52,1.12,2.04c.7.52,1.46.68,2.27.5.81-.19,1.5-.67,2.07-1.44Z"/><path class="cls-3" d="m55.02,155.97l-1.45-.6,3.77-9.03,1.45.6-3.77,9.03Zm4.02-11.61c-.26-.11-.44-.29-.55-.54s-.11-.51,0-.78c.11-.27.3-.46.56-.56.26-.1.51-.1.77,0,.26.11.45.29.56.55.11.26.11.52,0,.79-.11.26-.29.44-.55.55s-.52.1-.79,0Z"/><path class="cls-3" d="m68.88,159.77c-.4.13-.9.13-1.49,0-1.68-.34-2.33-1.45-1.95-3.32l1.16-5.67-1.65-.34.27-1.31,1.65.34.48-2.34,1.64-.18-.58,2.84,2.42.49-.27,1.31-2.42-.49-1.1,5.4c-.13.64-.12,1.12.05,1.44.16.32.5.53,1,.63.39.08.74.04,1.07-.11l-.27,1.31Z"/><path class="cls-3" d="m82.2,160.74c-1.44.07-2.62-.32-3.53-1.19s-1.4-2.06-1.48-3.56c-.08-1.64.3-2.95,1.15-3.91.85-.97,2.04-1.49,3.56-1.57,1.46-.07,2.62.32,3.48,1.17s1.33,2.08,1.42,3.67c.08,1.56-.3,2.83-1.13,3.81s-1.99,1.51-3.47,1.59Zm-.34-8.92c-1.01.05-1.78.43-2.33,1.15-.55.71-.8,1.67-.73,2.87.06,1.16.4,2.06,1.03,2.69.62.64,1.43.93,2.43.88,1.01-.05,1.77-.42,2.28-1.1.51-.68.74-1.63.67-2.84-.06-1.22-.38-2.15-.96-2.78s-1.37-.93-2.38-.87Z"/><path class="cls-3" d="m98.97,148.81c-.32-.12-.73-.1-1.22.06-.64.2-1.07.67-1.31,1.41-.24.74-.19,1.62.14,2.66l1.51,4.75-1.49.47-2.96-9.32,1.49-.47.61,1.92h.04c0-.73.17-1.35.49-1.85.32-.51.75-.84,1.29-1.02.39-.12.7-.17.93-.16l.49,1.55Z"/><path class="cls-3" d="m103.86,141.95c-.25.13-.5.17-.77.09s-.47-.24-.61-.49c-.14-.26-.17-.52-.09-.78.08-.27.24-.47.49-.6.25-.14.51-.17.78-.1.27.07.47.24.62.5.13.25.16.5.08.77-.08.27-.25.47-.5.61Zm6.58,10.38l-1.37.76-4.72-8.57,1.37-.76,4.71,8.57Z"/><path class="cls-3" d="m124.11,142.09l-1.17,1.04-1.01-1.14-.03.03c.27,1.33-.09,2.43-1.09,3.31-.73.65-1.47.96-2.22.94-.75-.02-1.41-.35-1.98-.99-1.21-1.37-1.11-2.88.3-4.53l1.92-2.25c-1.1-1.24-2.16-1.42-3.16-.53-.88.78-1.41,1.79-1.59,3.02l-1.06-1.2c.31-1.1.94-2.06,1.88-2.89,1.72-1.53,3.39-1.38,5,.44l4.22,4.76Zm-4.45-2.66l-1.55,1.81c-.48.56-.77,1.06-.87,1.49s.06.9.5,1.39c.32.36.7.54,1.16.54s.9-.19,1.32-.56c.58-.52.88-1.15.9-1.89.02-.74-.25-1.43-.8-2.05l-.65-.73Z"/><path class="cls-3" d="m131.41,133.28l-.91,1.27-11.76-8.45.91-1.27,11.76,8.45Z"/><path class="cls-1" d="m27.27,59.13c7.66-21.5,28.19-36.88,52.32-36.88s44.66,15.39,52.32,36.88"/><line class="cls-1" x1="27.2" y1="123.89" x2="27.2" y2="59.11"/><line class="cls-1" x1="131.97" y1="123.89" x2="131.97" y2="59.11"/></svg>