<?xml version="1.0" encoding="UTF-8"?><svg id="Capa_1" xmlns="http://www.w3.org/2000/svg" viewBox="0 0 255 131"><defs><style>.cls-1{fill:#d9855f;}.cls-2{fill:#726c47;}</style></defs><path class="cls-1" d="m54.91,54.58c-1.69,0-3.38-.02-5.07-.05-1.69-.03-3.38-.08-5.07-.15-.98,4.88-2.2,9.53-3.66,13.95-1.46,4.42-3.43,8.49-5.9,12.2-.39.46-.85.49-1.37.1-.91-.59-1.2-1.37-.88-2.34.06-.13.13-.26.19-.39.06-.13.23-.32.49-.59,2.6-3.58,4.65-7.61,6.15-12.1,1.5-4.49,2.7-9.25,3.61-14.3.91-5.04,1.69-10.28,2.34-15.71.65-5.43,1.43-10.95,2.34-16.54.2-.84.55-1.3,1.07-1.37.32,0,.73.07,1.22.2.49.13.99.36,1.51.68.52.26,1.04.5,1.56.73.52.23,1.01.37,1.46.44.72,0,1.3-.26,1.76-.78.26-.39.52-.52.78-.39.45.07.78.72.98,1.95.65,5.53,1.25,11,1.81,16.39.55,5.4,1.27,10.57,2.15,15.52.88,4.94,2.05,9.63,3.51,14.05,1.46,4.43,3.5,8.43,6.1,12,.06.07.1.13.1.2,0,.26-.15.6-.44,1.02-.29.42-.68.86-1.17,1.32-.49.46-1.04.91-1.66,1.37-.62.46-1.22.81-1.81,1.07-1.3.65-2.42.98-3.37.98s-1.55-.32-1.81-.98c-1.69-4.49-3.06-9.11-4.1-13.86-1.04-4.75-1.99-9.63-2.83-14.64Zm-5.37-29.96c-.78,4.62-1.48,9.17-2.1,13.66-.62,4.49-1.32,8.88-2.1,13.17h9.08c-.72-4.49-1.45-8.98-2.2-13.47-.75-4.49-1.64-8.94-2.68-13.37Z"/><path class="cls-1" d="m104.39,77.9c.13.39.11.83-.05,1.32-.16.49-.41.89-.73,1.22-9.04,7.74-18.05,7.74-27.03,0-.26-.26-.49-.63-.68-1.12-.2-.49-.23-.93-.1-1.32,4.42-17.37,4.42-34.77,0-52.21-.26-1.04-.03-1.89.68-2.54.71-.59,1.63-.98,2.73-1.17,1.43-.19,2.67-.52,3.71-.98.65-.26,1.17-.81,1.56-1.66.2-.39.45-.65.78-.78.26-.06.47.03.63.29.16.26.28.52.34.78.59,10.48.88,20.9.88,31.28s-.26,20.8-.78,31.28c5.53,1.37,11.06-.23,16.59-4.78.72-.59,1.2-.45,1.46.39Z"/><path class="cls-1" d="m145.96,74.08c-.59,1.76-1.33,3.42-2.24,4.98-.91,1.56-1.99,2.95-3.22,4.15-1.24,1.2-2.65,2.16-4.25,2.88-1.59.72-3.37,1.08-5.32,1.08-2.86.06-5.43-.62-7.71-2.05-2.28-1.43-3.97-3.09-5.07-4.98l-.39,2.44c-.13.65-.81.95-2.05.88-1.24-.06-2.54-.42-3.9-1.07-1.3-.59-2.42-1.32-3.37-2.2-.94-.88-1.29-1.58-1.02-2.1,6.83-17.52,6.8-34.98-.1-52.38-.33-1.04-.16-1.76.49-2.15.32-.13.75-.26,1.27-.39.52-.13,1.04-.2,1.56-.2.72,0,1.38-.03,2-.1.62-.07,1.22-.2,1.81-.39.72-.32,1.2-.85,1.46-1.56.13-.39.36-.65.68-.78.26-.06.49.02.68.25.2.23.32.47.39.73.26,1.37.5,2.72.73,4.06.23,1.34.44,2.69.63,4.05.59-2.54,1.37-4.62,2.34-6.25.98-1.63,2.05-2.92,3.22-3.86,1.17-.94,2.42-1.58,3.76-1.9,1.33-.33,2.68-.46,4.05-.39,1.69.07,3.25.42,4.68,1.08,1.43.65,2.73,1.52,3.9,2.59,1.17,1.07,2.2,2.33,3.07,3.76.88,1.43,1.61,2.93,2.2,4.49,1.17,3.19,1.82,6.56,1.95,10.11.13,3.55.16,7.28.1,11.19-.2,4.43-.34,8.65-.44,12.66s-.73,7.8-1.9,11.38Zm-7.9.21c.91-2.93,1.45-6.28,1.61-10.05.16-3.77.24-7.9.24-12.39s-.08-8.59-.24-12.3c-.16-3.71-.63-6.99-1.42-9.86-.72-2.86-1.77-5.16-3.17-6.88-1.4-1.72-3.04-2.55-4.93-2.49-1.3,0-2.55.46-3.76,1.37-1.2.91-2.26,2.15-3.17,3.71-.91,1.63-1.63,3.5-2.15,5.61-.52,2.11-.91,4.41-1.17,6.88,1.11,12.17.81,24.3-.88,36.4.72,2.67,1.92,4.86,3.61,6.59,1.69,1.72,3.67,2.65,5.95,2.78,2.28.13,4.23-.67,5.86-2.39,1.63-1.72,2.83-4.05,3.61-6.98Z"/><path class="cls-1" d="m180.8,77.9c.13.39.11.83-.05,1.32-.16.49-.41.86-.73,1.12-9.56,7.81-19.09,7.81-28.59,0-.26-.19-.5-.52-.73-.98-.23-.46-.28-.84-.15-1.17,4.75-17.43,4.75-34.94,0-52.5-.07-.32,0-.7.2-1.12.19-.42.42-.76.68-1.02,9.17-7.42,18.28-7.74,27.32-.98.32.26.59.62.78,1.07.2.46.23.88.1,1.27-.26.91-.75,1.11-1.46.59-5.73-3.9-11.39-5.14-16.98-3.71.32,4.29.55,8.57.68,12.83.13,4.26.23,8.54.29,12.83,1.82-.06,3.63-.08,5.42-.05,1.79.03,3.63.15,5.51.34.65.13.91.7.78,1.71,0,1.07-.29,1.61-.88,1.61-1.82-.06-3.63-.1-5.42-.1h-5.42c0,5.27-.08,10.48-.24,15.61-.16,5.14-.41,10.31-.73,15.52,6.11,1.56,12.16.03,18.15-4.59.72-.59,1.2-.45,1.46.39Z"/><path class="cls-1" d="m205,54.58c-1.69,0-3.38-.02-5.07-.05-1.69-.03-3.38-.08-5.07-.15-.98,4.88-2.2,9.53-3.66,13.95-1.46,4.42-3.43,8.49-5.9,12.2-.39.46-.85.49-1.37.1-.91-.59-1.2-1.37-.88-2.34.06-.13.13-.26.19-.39.06-.13.23-.32.49-.59,2.6-3.58,4.65-7.61,6.15-12.1,1.5-4.49,2.7-9.25,3.61-14.3.91-5.04,1.69-10.28,2.34-15.71.65-5.43,1.43-10.95,2.34-16.54.2-.84.55-1.3,1.07-1.37.32,0,.73.07,1.22.2.49.13.99.36,1.51.68.52.26,1.04.5,1.56.73.52.23,1.01.37,1.46.44.72,0,1.3-.26,1.76-.78.26-.39.52-.52.78-.39.45.07.78.72.98,1.95.65,5.53,1.25,11,1.81,16.39.55,5.4,1.27,10.57,2.15,15.52.88,4.94,2.05,9.63,3.51,14.05,1.46,4.43,3.5,8.43,6.1,12,.06.07.1.13.1.2,0,.26-.15.6-.44,1.02-.29.42-.68.86-1.17,1.32-.49.46-1.04.91-1.66,1.37-.62.46-1.22.81-1.81,1.07-1.3.65-2.42.98-3.37.98s-1.55-.32-1.81-.98c-1.69-4.49-3.06-9.11-4.1-13.86-1.04-4.75-1.99-9.63-2.83-14.64Zm-5.37-29.96c-.78,4.62-1.48,9.17-2.1,13.66-.62,4.49-1.32,8.88-2.1,13.17h9.08c-.72-4.49-1.45-8.98-2.2-13.47-.75-4.49-1.64-8.94-2.68-13.37Z"/><path class="cls-2" d="m49.44,107.05h-10.44c.04,1.65.48,2.92,1.33,3.81.85.9,2.01,1.34,3.5,1.34,1.67,0,3.2-.55,4.59-1.65v2.22c-1.3.94-3.02,1.42-5.16,1.42s-3.73-.67-4.93-2.02c-1.19-1.34-1.79-3.23-1.79-5.67,0-2.3.65-4.18,1.96-5.63,1.3-1.45,2.93-2.17,4.86-2.17s3.43.63,4.49,1.88,1.59,2.99,1.59,5.21v1.24Zm-2.43-2.01c0-1.37-.34-2.43-.99-3.19-.65-.76-1.55-1.14-2.71-1.14s-2.07.4-2.85,1.2c-.78.8-1.26,1.84-1.44,3.13h7.99Z"/><path class="cls-2" d="m74.28,113.86h-2.37v-2.51h-.06c-1.1,1.91-2.79,2.86-5.08,2.86-1.86,0-3.34-.66-4.46-1.99-1.11-1.32-1.67-3.13-1.67-5.41,0-2.45.62-4.41,1.85-5.88,1.23-1.47,2.87-2.21,4.93-2.21s3.51.8,4.43,2.4h.06v-9.16h2.37v21.9Zm-2.37-6.69v-2.18c0-1.19-.4-2.2-1.18-3.03-.79-.83-1.79-1.24-3-1.24-1.44,0-2.58.53-3.41,1.59-.83,1.06-1.24,2.52-1.24,4.39,0,1.7.4,3.05,1.19,4.04.79.99,1.86,1.48,3.2,1.48s2.39-.48,3.21-1.43c.82-.95,1.24-2.16,1.24-3.61Z"/><path class="cls-2" d="m88.93,95.31c-.42,0-.78-.14-1.08-.43-.3-.29-.45-.65-.45-1.1s.15-.81.45-1.1c.3-.29.66-.44,1.08-.44s.8.15,1.1.44c.3.29.46.66.46,1.1s-.15.78-.46,1.08c-.3.3-.67.45-1.1.45Zm1.16,18.55h-2.37v-14.79h2.37v14.79Z"/><path class="cls-2" d="m110.38,113.71c-.56.31-1.29.46-2.21.46-2.59,0-3.89-1.44-3.89-4.33v-8.75h-2.54v-2.02h2.54v-3.61l2.37-.77v4.38h3.73v2.02h-3.73v8.34c0,.99.17,1.7.51,2.12.34.42.9.64,1.68.64.6,0,1.11-.16,1.55-.49v2.02Z"/><path class="cls-2" d="m128.37,114.2c-2.19,0-3.93-.69-5.24-2.07-1.31-1.38-1.96-3.21-1.96-5.5,0-2.48.68-4.43,2.04-5.82,1.36-1.4,3.19-2.09,5.5-2.09s3.93.68,5.16,2.04c1.24,1.36,1.86,3.24,1.86,5.65s-.67,4.25-2,5.67c-1.33,1.42-3.12,2.13-5.37,2.13Zm.17-13.49c-1.52,0-2.73.52-3.61,1.55-.89,1.04-1.33,2.46-1.33,4.28s.45,3.13,1.34,4.15,2.09,1.52,3.6,1.52,2.71-.5,3.53-1.49c.82-.99,1.24-2.4,1.24-4.23s-.41-3.27-1.24-4.28c-.82-1-2-1.5-3.53-1.5Z"/><path class="cls-2" d="m155.87,101.46c-.41-.32-1.01-.48-1.79-.48-1.01,0-1.86.48-2.53,1.43-.68.95-1.02,2.25-1.02,3.9v7.54h-2.37v-14.79h2.37v3.05h.06c.34-1.04.85-1.85,1.55-2.43.69-.58,1.47-.87,2.33-.87.62,0,1.09.07,1.42.2v2.46Z"/><path class="cls-2" d="m168.29,95.31c-.42,0-.78-.14-1.08-.43-.3-.29-.45-.65-.45-1.1s.15-.81.45-1.1c.3-.29.66-.44,1.08-.44s.8.15,1.1.44c.3.29.46.66.46,1.1s-.15.78-.46,1.08c-.3.3-.67.45-1.1.45Zm1.16,18.55h-2.37v-14.79h2.37v14.79Z"/><path class="cls-2" d="m193.47,113.86h-2.37v-2.31h-.06c-1.03,1.77-2.55,2.66-4.55,2.66-1.47,0-2.63-.39-3.46-1.17-.83-.78-1.25-1.82-1.25-3.11,0-2.76,1.63-4.37,4.88-4.82l4.43-.62c0-2.51-1.02-3.77-3.05-3.77-1.78,0-3.39.61-4.82,1.82v-2.43c1.45-.92,3.13-1.39,5.03-1.39,3.48,0,5.21,1.84,5.21,5.52v9.62Zm-2.37-7.48l-3.57.49c-1.1.15-1.93.43-2.48.82-.56.39-.84,1.08-.84,2.07,0,.72.26,1.31.77,1.77.52.46,1.2.69,2.06.69,1.17,0,2.15-.41,2.91-1.23.77-.82,1.15-1.87,1.15-3.13v-1.47Z"/><path class="cls-2" d="m208.94,113.86h-2.37v-21.9h2.37v21.9Z"/></svg>